<svg width="22" height="23" viewBox="0 0 22 23" fill="none" xmlns="http://www.w3.org/2000/svg">
<g clip-path="url(#clip0_772_123132)">
<ellipse cx="11" cy="11.9984" rx="11" ry="11.0016" fill="#A32700"/>
<ellipse cx="10.9197" cy="10.9213" rx="10.9197" ry="10.9213" fill="#FF3D00"/>
<ellipse cx="10.9197" cy="10.9212" rx="8.32353" ry="8.32471" fill="white" fill-opacity="0.9" stroke="white" stroke-width="0.733333"/>
<path opacity="0.5" d="M8.83228 19.2727C10.4639 19.4806 11.3756 19.4885 13.0075 19.2727V21.6473C11.3685 21.8907 10.4491 21.9232 8.83228 21.6473V19.2727Z" fill="white"/>
<path opacity="0.5" d="M13.0074 2.56934C11.3757 2.36143 10.464 2.3535 8.8322 2.56934L8.8322 0.194695C10.4712 -0.0486288 11.3906 -0.0811936 13.0074 0.194695L13.0074 2.56934Z" fill="white"/>
<path opacity="0.5" d="M19.2702 13.009C19.4781 11.3772 19.486 10.4653 19.2702 8.83326L21.6445 8.83326C21.8878 10.4724 21.9204 11.392 21.6445 13.009L19.2702 13.009Z" fill="white"/>
<path opacity="0.5" d="M2.5694 8.83325C2.36152 10.4651 2.35359 11.377 2.5694 13.009L0.195094 13.009C-0.0481949 11.3698 -0.0807552 10.4503 0.195094 8.83325L2.5694 8.83325Z" fill="white"/>
<path opacity="0.5" d="M18.3006 6.49194C17.2938 5.19102 16.6548 4.54063 15.3483 3.53922L17.0272 1.8601C18.3581 2.84712 19.0313 3.47433 19.9795 4.81282L18.3006 6.49194Z" fill="white"/>
<path opacity="0.5" d="M3.53894 15.3503C4.54569 16.6513 5.18477 17.3017 6.49124 18.3031L4.81236 19.9822C3.48141 18.9952 2.80824 18.368 1.86005 17.0295L3.53894 15.3503Z" fill="white"/>
<path opacity="0.5" d="M6.49115 3.53931C5.19041 4.5462 4.54012 5.18538 3.53885 6.49203L1.85996 4.8129C2.84685 3.48177 3.47397 2.80851 4.81226 1.86018L6.49115 3.53931Z" fill="white"/>
<path opacity="0.5" d="M15.3484 18.303C16.6491 17.2961 17.2994 16.6569 18.3007 15.3503L19.9796 17.0294C18.9927 18.3605 18.3656 19.0338 17.0273 19.9821L15.3484 18.303Z" fill="white"/>
</g>
<defs>
<clipPath id="clip0_772_123132">
<rect width="22" height="23" fill="white"/>
</clipPath>
</defs>
</svg>
